PathFileType	4	(X/Y/Z)	C:/Users/beibeiliu/ov580/test_trc\sequence.21_training_dense_right.trc
DataRate	CameraRate	NumFrames	NumMarkers	Units	OrigDataRate	OrigDataStartFrame	OrigNumFrames
120	120	22	19	mm	120	199	397
Frame#	Time	ThumbCMC			ThumbMCP			ThumbIP			ThumbTip			IndexMCP			IndexPIP			IndexTip			MiddleMCP			MiddlePIP			MiddleTip			RingMCP			RingPIP			RingTip			PinkyMCP			PinkyPIP			PinkyTip			BackHand1			BackHand2			BackHand3	
		X0	Y0	Z0	X1	Y1	Z1	X2	Y2	Z2	X3	Y3	Z3	X4	Y4	Z4	X5	Y5	Z5	X6	Y6	Z6	X7	Y7	Z7	X8	Y8	Z8	X9	Y9	Z9	X10	Y10	Z10	X11	Y11	Z11	X12	Y12	Z12	X13	Y13	Z13	X14	Y14	Z14	X15	Y15	Z15	X16	Y16	Z16	X17	Y17	Z17	X18	Y18	Z18	
198	1.65	213.006	52.4925	38.1982	184.273	39.1479	36.0983	173.69	14.9843	29.395	172.904	-11.5149	29.4095	181.178	15.6375	-5.40619	161.418	-3.05252	-7.56714	140.15	-15.1641	-9.2971	188.83	-9.51216	-1.2912	165.454	-20.4703	-3.85067	146.336	-38.4394	-1.67048	200.13	-18.7605	10.2023	176.344	-32.9774	13.5854	159.404	-35.7247	23.0835	214.898	-26.75	21.5299	194.507	-39.3714	26.8605	177.543	-42.2168	33.3503	237.721	11.1154	18.9632	252.561	27.7788	27.588	233.176	38.5489	17.4398	
199	1.65833	204.199	47.9195	39.5638	175.95	28.2845	38.4565	173.348	5.08566	31.3006	176.133	-16.3421	30.6518	176.625	8.37372	-3.59826	159.211	-2.46436	-6.94795	144.971	-20.6702	-7.07264	186.338	-9.44816	-3.38027	168.668	-22.8515	-3.6522	151.019	-47.0394	1.59221	200.8	-19.2424	7.56716	178.582	-33.1606	12.9671	163.265	-43.1128	30.355	218.87	-24.8537	19.2806	196.161	-38.5549	27.1007	180.289	-36.1479	41.274	235.498	11.9214	14.8928	250.667	33.4143	29.9086	224.18	45.6471	16.8045	
200	1.66667	199.316	46.0507	44.1653	175.94	24.4389	45.2302	171.363	-1.45003	34.5223	175.342	-22.9661	31.4238	173.109	9.46276	-2.3699	157.749	-10.2563	-6.1301	144.633	-27.6984	-5.98091	185.532	-12.0718	-3.18545	170.75	-29.0383	-3.677	155.168	-51.5339	1.29436	201.411	-20.9731	5.55116	183.726	-39.2564	15.1446	169.307	-48.8548	34.9175	220.029	-25.4992	16.637	198.043	-36.5553	28.7595	186.043	-33.2402	47.954	230.27	20.0786	12.5337	248.956	36.93	29.8189	219.55	43.9954	17.7856	
201	1.675	194.451	45.7454	47.4207	172.17	16.6743	44.1132	170.782	-3.8776	37.106	177.912	-27.5023	30.8451	172.056	6.72741	-1.68155	159.023	-15.8221	-6.08986	145.542	-33.1344	-5.22565	187.305	-13.5083	-3.12707	168.28	-30.6858	-4.31879	155.171	-57.4514	2.67055	204.807	-20.8349	5.58715	189.541	-41.4895	13.5175	172.694	-48.4138	33.778	220.527	-23.308	16.1247	204.106	-38.5305	28.0145	192.513	-30.472	50.5402	231.914	17.2591	13.4625	241.592	39.2921	27.3599	213.39	45.9841	22.2633	
202	1.68333	190.935	39.4478	45.1954	172.684	12.6617	45.0299	172.182	-12.0084	34.3503	185.903	-29.8439	28.1969	169.272	-0.473149	-3.77403	160.04	-22.0395	-5.55885	149.572	-42.8809	-4.06915	186.588	-12.8976	-3.07365	173.408	-38.8598	-4.65412	160.219	-58.946	3.55423	201.934	-22.5704	3.92115	189.493	-45.0869	14.9627	179.493	-51.952	34.2743	221.878	-26.2145	15.2853	204.339	-38.8642	27.2163	195.903	-34.8238	50.9482	230.947	20.7456	13.4989	240.637	36.5958	28.5845	211.224	42.5608	20.7248	
203	1.69167	182.86	35.0491	42.3061	168.448	5.60134	42.8991	176.257	-17.963	32.6456	191.952	-36.356	27.787	170.336	-9.63204	-4.66972	160.616	-29.8702	-7.15971	150.047	-54.9237	-2.25619	188.393	-23.6321	-6.52798	177.766	-45.8776	-5.10912	169.836	-71.0214	7.20755	207.124	-27.916	3.19531	192.14	-50.5622	14.7276	185.251	-57.1674	38.38	220.416	-28.7952	12.8292	206.54	-42.1474	26.355	198.344	-41.3281	46.0918	226.843	18.146	11.6397	239.097	39.3022	27.9446	205.439	39.1769	15.5441	
204	1.7	182.533	30.4657	41.1509	171.363	-1.21419	39.3807	177.692	-25.2438	31.8824	196.109	-39.8038	30.1855	176.04	-19.9666	-7.63548	165.221	-42.2171	-8.29378	160.598	-67.4285	-0.954978	195.056	-30.7868	-6.839	187.791	-56.0283	-5.08224	176.104	-78.74	8.88496	208.513	-34.6149	1.55881	200.693	-58.0389	14.6581	187.807	-62.2345	36.4566	225.677	-29.1737	12.6341	215.833	-49.5204	24.208	201.84	-50.9503	41.4321	225.561	14.0646	12.8022	232.357	35.5681	24.0602	202.803	33.6249	14.4546	
205	1.70833	180.251	24.6662	37.0331	167.359	-6.65733	38.3427	180.072	-29.2203	32.1714	202.631	-40.5043	30.3899	179.903	-26.6131	-7.6311	171.689	-50.5448	-8.45994	167.008	-68.9532	-3.22248	201.58	-32.5939	-4.97573	195.378	-59.8368	-4.46151	186.684	-87.1889	11.4369	217.196	-38.2118	2.48267	206.427	-58.5492	11.0685	193.966	-67.3854	31.8629	229.984	-27.7515	14.9523	221.859	-51.2862	20.6319	205.927	-59.9191	37.9632	228.975	11.5682	11.0647	228.006	37.2628	23.9584	203.503	29.364	11.2113	
206	1.71667	178.631	21.7458	34.6854	171.723	-12.1632	35.758	185.513	-35.1267	30.8674	206.975	-44.3005	31.5939	184.445	-29.0845	-7.4563	177.149	-50.7267	-7.56781	173.15	-74.5185	-3.60774	205.731	-33.076	-4.59809	202.85	-60.4885	-4.52765	194.221	-87.6401	4.54946	222.614	-33.9951	5.67239	214.562	-62.3923	13.0226	203.395	-77.2228	30.676	235.929	-27.9827	17.8633	227.981	-52.0515	21.1055	218.132	-65.6236	32.2508	225.347	13.1135	12.8849	228.853	34.1123	25.7227	203.703	26.6559	13.1453	
207	1.725	177.421	21.8517	38.2333	175.058	-12.3824	35.5012	186.789	-36.0674	30.2742	208.001	-45.6028	32.0409	184.855	-29.1429	-6.15253	183.153	-51.3585	-6.84462	178.285	-71.7506	-4.60695	207.323	-37.7983	-1.63396	206.75	-57.4026	-1.775	201.275	-85.7913	-1.64428	225.752	-31.432	9.7257	221.183	-60.9998	14.1291	214.752	-77.022	21.9517	239.484	-24.2922	22.5011	240.665	-49.321	26.6332	232.582	-66.3194	29.0701	226.524	16.4438	15.7995	228.168	40.7974	30.9899	202.239	31.3039	15.6657	
208	1.73333	175.646	19.1367	37.867	172.516	-14.036	36.0653	190.104	-34.5698	28.8636	213.276	-46.0066	29.044	187.125	-27.5003	-5.12826	184.252	-47.555	-5.92583	182.127	-75.8001	-7.5278	209.264	-36.2434	-0.2395	212.207	-56.0358	-0.699365	211.384	-80.3514	-4.25372	226.619	-31.0143	11.0224	225.15	-52.3739	13.5536	224.122	-75.643	17.516	243.561	-27.1462	25.9835	247.398	-41.2064	30.0221	247.011	-60.5954	27.733	224.746	16.9923	19.9013	223.829	39.3324	31.3152	202.26	27.4007	16.0099	
209	1.74167	173.026	17.8071	38.3792	175.321	-16.0437	33.8478	190.775	-33.5187	29.2316	214.842	-45.2385	29.6359	190.684	-26.2031	-4.31994	190.452	-50.5116	-6.0337	189.528	-71.0001	-8.54571	215.206	-32.4906	1.39987	217.194	-55.8824	-1.3372	214.79	-79.9985	-6.73355	230.297	-30.7261	12.243	233.363	-56.7596	13.8959	233.896	-77.4088	13.1346	246.147	-24.2413	28.3166	250.885	-42.5963	29.6621	257.717	-55.3821	27.72	229.298	16.0078	22.1642	224.159	38.8191	36.7363	203.535	27.3911	19.3465	
210	1.75	177.313	17.4652	38.3138	179.109	-16.4543	31.5518	195.482	-34.5859	27.6484	211.639	-45.2353	30.0709	194.352	-29.9723	-6.55551	196.199	-49.1428	-8.2496	193.176	-75.4009	-13.0543	220.157	-35.9783	-0.564537	218.284	-55.8632	-5.46374	223.154	-77.908	-8.41578	234.635	-27.1946	12.9099	236.014	-52.2795	10.4619	238.829	-70.9664	6.9213	248.778	-17.7478	31.2718	254.468	-37.131	31.0234	263.771	-51.718	28.7291	225.036	18.0392	23.2863	220.514	42.3353	37.1254	200.747	29.3543	18.9951	
211	1.75833	172.599	12.2658	35.4132	174.167	-21.0696	32.1755	193.391	-40.3272	25.9283	216.105	-50.4338	27.9365	197.241	-31.7929	-8.60229	198.549	-50.9998	-12.4072	199.027	-75.8391	-16.8834	220.42	-31.0965	-2.64641	224.319	-52.81	-5.69885	229.549	-76.8095	-11.4723	236.105	-29.22	10.5394	244.793	-49.1257	9.09539	249.539	-68.2319	5.62599	251.81	-18.4551	31.7339	255.776	-31.5108	30.8711	271.086	-48.3826	30.1507	225.188	17.2781	21.5266	219.884	39.8599	40.0541	201.743	27.2737	17.3548	
212	1.76667	173.104	9.02115	32.4622	179.221	-20.4111	30.8802	195.085	-42.1275	24.0936	219.513	-51.0101	25.561	199.696	-29.9898	-11.7506	201.728	-48.4525	-14.8839	204.163	-73.1589	-22.5584	225.741	-32.7117	-5.37823	226.949	-50.8037	-9.82823	235.952	-74.4342	-15.1759	243.481	-27.7251	10.8592	247.271	-47.7916	4.94283	254.297	-65.8492	0.871415	254.155	-18.2916	31.7812	262.277	-32.6679	30.4093	274.646	-46.4469	29.9169	225.644	19.3014	22.4829	216.504	37.1107	36.8923	199.151	26.6923	17.1422	
213	1.775	174.239	9.41672	31.5109	181.031	-24.7435	23.3619	199.937	-41.4051	19.5629	225.006	-47.7368	21.628	201.68	-25.7099	-13.9369	205.239	-46.8133	-20.8559	209.296	-70.3374	-31.0427	227.031	-27.1187	-7.55734	233.525	-49.1979	-15.3736	244.62	-74.806	-21.3391	241.658	-25.3818	5.15058	250.013	-42.9912	2.18447	257.361	-64.2631	-6.9817	253.405	-15.1762	28.8687	264.653	-30.14	29.4457	275.124	-42.4092	23.8677	225.915	21.4206	23.8524	216.967	39.8114	39.3417	197.497	29.1626	17.7469	
214	1.78333	172.767	8.12405	28.8491	181.002	-22.1296	21.6168	201.18	-41.9966	13.7577	222.742	-49.4484	17.4252	204.983	-25.1419	-19.6107	211.206	-43.8461	-27.0844	214.174	-64.4293	-39.1524	228.405	-26.3539	-13.0535	238.934	-44.2123	-19.0866	246.008	-68.0964	-31.0383	244.079	-22.8795	1.37127	254.706	-40.9252	-4.69986	262.568	-56.7341	-10.963	256.49	-13.9991	27.8694	267.351	-29.3899	23.3714	280.21	-39.8041	19.5472	229.744	18.2569	20.8959	220.374	38.1167	36.5973	200.862	27.3746	17.5791	
215	1.79167	175.434	6.40551	24.6606	184.555	-24.3475	14.1267	201.659	-39.3446	9.19228	225.2	-48.8662	10.4328	210.45	-23.004	-24.6872	214.285	-40.0177	-36.5792	219.47	-56.9242	-48.3208	231.049	-25.0911	-18.993	241.263	-40.3051	-26.5063	253.878	-62.2889	-37.912	248.778	-19.9667	1.02815	257.215	-38.5986	-11.2166	264.18	-51.8741	-17.6474	257.762	-13.4565	22.6048	268.781	-24.5126	22.5479	281.69	-32.6251	16.6343	227.137	19.5671	20.226	217.495	36.7565	35.8473	199.72	26.8936	11.5774	
216	1.8	174.302	4.29462	21.4378	185.885	-24.1601	11.3081	207.161	-38.046	3.78678	229.619	-47.0795	3.65025	209.849	-17.3061	-29.2776	216.943	-33.2422	-42.0119	225.197	-48.0889	-56.9799	231.968	-17.8876	-20.7124	246.389	-38.3063	-33.3462	253.664	-54.5385	-47.3926	249.203	-17.1267	-6.04598	259.686	-31.5167	-13.3187	269.527	-49.2346	-25.9472	258.144	-11.9158	20.1649	270.417	-25.2388	14.4001	288.097	-33.315	13.1331	227.789	19.2579	15.946	219.981	35.1609	34.6351	200.854	27.14	15.4554	
217	1.80833	175.8	4.15168	20.5896	184.894	-25.119	5.66207	208.04	-38.8226	-4.44199	228.63	-43.4172	-0.925509	209.398	-10.814	-34.7832	216.848	-25.6229	-50.2209	226.635	-38.7831	-66.3895	237.699	-14.8906	-25.8887	248.858	-29.3794	-38.4412	261.244	-46.6392	-54.8261	251.039	-13.1832	-9.18444	264.179	-27.5128	-17.9887	271.804	-40.6726	-31.772	259.409	-9.61426	18.0065	271.427	-21.0349	13.1809	285.865	-27.6983	5.35073	227.974	19.4685	19.5627	219.492	34.2439	34.532	201.222	26.6669	12.8975	
218	1.81667	177.156	4.75103	18.1601	188.395	-23.4077	0.237796	210.052	-36.3263	-10.5903	232.109	-42.821	-9.21561	211.511	-6.06484	-37.2728	219.103	-19.239	-54.9949	231.176	-29.4295	-72.641	236.315	-8.67404	-30.1388	251.265	-22.7259	-44.2486	263.711	-36.3981	-61.6367	252.58	-10.8002	-12.1972	264.91	-21.0324	-20.2327	274.456	-34.9595	-34.6785	258.581	-7.89234	12.5466	271.446	-17.9713	12.011	288.416	-28.4242	-0.139966	227.73	23.0194	18.3979	216.167	34.8039	35.3201	204.031	28.0314	12.6006	
219	1.825	179.151	3.84698	17.9281	187.494	-23.4281	-4.44451	211.125	-33.3257	-15.3628	233.391	-39.9672	-12.7466	216.558	-2.20051	-36.5486	224.996	-13.4887	-57.4311	231.994	-19.7399	-74.2411	240.2	-5.3134	-32.4432	250.993	-16.473	-45.8913	262.908	-27.0031	-64.6911	255.833	-8.80423	-12.2339	265.03	-19.7409	-25.6861	276.089	-30.6225	-40.8818	262.118	-10.0197	9.59052	270.987	-18.8218	6.10924	287.926	-26.6671	-0.101746	230.313	19.6197	18.6654	216.994	30.5659	36.6316	201.22	26.9802	14.7854	
